{
	"asset":{
		"copyright":"2024 Stephanie Aelmore",
		"generator":"Khronos glTF Blender I/O v4.0.44",
		"version":"2.0"
	},
	"scene":0,
	"scenes":[
		{
			"name":"Scene",
			"nodes":[
				0,
				1,
				2,
				3,
				4,
				5,
				6,
				7,
				8,
				9,
				10
			]
		}
	],
	"nodes":[
		{
			"mesh":0,
			"name":"3",
			"translation":[
				4,
				0,
				0.0066666677594184875
			]
		},
		{
			"mesh":1,
			"name":"4",
			"translation":[
				5,
				0.005000054836273193,
				0
			]
		},
		{
			"mesh":2,
			"name":"2",
			"translation":[
				3,
				0,
				0
			]
		},
		{
			"mesh":3,
			"name":"1",
			"translation":[
				2,
				0,
				0
			]
		},
		{
			"mesh":4,
			"name":"MineMerged",
			"translation":[
				1,
				0,
				0
			]
		},
		{
			"mesh":5,
			"name":"Ring",
			"translation":[
				6,
				0,
				0
			]
		},
		{
			"mesh":6,
			"name":"BlockMerged"
		},
		{
			"mesh":7,
			"name":"Orbit1",
			"translation":[
				2,
				0,
				1
			]
		},
		{
			"mesh":8,
			"name":"Orbit2",
			"translation":[
				3,
				0,
				0.9999999403953552
			]
		},
		{
			"mesh":9,
			"name":"Orbit3",
			"rotation":[
				0,
				-0.8660253882408142,
				0,
				0.4999999701976776
			],
			"translation":[
				4,
				0,
				0.9999998211860657
			]
		},
		{
			"mesh":10,
			"name":"Orbit4",
			"rotation":[
				0,
				-0.7071067094802856,
				0,
				0.7071068286895752
			],
			"translation":[
				5,
				0,
				1
			]
		}
	],
	"meshes":[
		{
			"name":"Single3",
			"primitives":[
				{
					"attributes":{
						"POSITION":0,
						"NORMAL":1,
						"TEXCOORD_0":2
					},
					"indices":3
				}
			]
		},
		{
			"name":"Single4",
			"primitives":[
				{
					"attributes":{
						"POSITION":4,
						"NORMAL":5,
						"TEXCOORD_0":6
					},
					"indices":7
				}
			]
		},
		{
			"name":"Single2",
			"primitives":[
				{
					"attributes":{
						"POSITION":8,
						"NORMAL":9,
						"TEXCOORD_0":10
					},
					"indices":11
				}
			]
		},
		{
			"name":"Single1",
			"primitives":[
				{
					"attributes":{
						"POSITION":12,
						"NORMAL":13,
						"TEXCOORD_0":14
					},
					"indices":15
				}
			]
		},
		{
			"name":"MineMerged",
			"primitives":[
				{
					"attributes":{
						"POSITION":16,
						"NORMAL":17,
						"TEXCOORD_0":18
					},
					"indices":19
				}
			]
		},
		{
			"name":"Ring",
			"primitives":[
				{
					"attributes":{
						"POSITION":20,
						"NORMAL":21,
						"TEXCOORD_0":22
					},
					"indices":23
				}
			]
		},
		{
			"name":"BlockMerged",
			"primitives":[
				{
					"attributes":{
						"POSITION":24,
						"NORMAL":25,
						"TEXCOORD_0":26
					},
					"indices":27
				}
			]
		},
		{
			"name":"Orbit1",
			"primitives":[
				{
					"attributes":{
						"POSITION":28,
						"NORMAL":29,
						"TEXCOORD_0":30
					},
					"indices":15
				}
			]
		},
		{
			"name":"Orbit2",
			"primitives":[
				{
					"attributes":{
						"POSITION":31,
						"NORMAL":32,
						"TEXCOORD_0":33
					},
					"indices":11
				}
			]
		},
		{
			"name":"Orbit3",
			"primitives":[
				{
					"attributes":{
						"POSITION":34,
						"NORMAL":35,
						"TEXCOORD_0":36
					},
					"indices":3
				}
			]
		},
		{
			"name":"Orbit4",
			"primitives":[
				{
					"attributes":{
						"POSITION":37,
						"NORMAL":38,
						"TEXCOORD_0":39
					},
					"indices":7
				}
			]
		}
	],
	"accessors":[
		{
			"bufferView":0,
			"componentType":5126,
			"count":2187,
			"max":[
				0.07499999552965164,
				0.04999999329447746,
				0.06666665524244308
			],
			"min":[
				-0.07499999552965164,
				-0.05000000447034836,
				-0.0833333283662796
			],
			"type":"VEC3"
		},
		{
			"bufferView":1,
			"componentType":5126,
			"count":2187,
			"type":"VEC3"
		},
		{
			"bufferView":2,
			"componentType":5126,
			"count":2187,
			"type":"VEC2"
		},
		{
			"bufferView":3,
			"componentType":5123,
			"count":11520,
			"type":"SCALAR"
		},
		{
			"bufferView":4,
			"componentType":5126,
			"count":2916,
			"max":[
				0.07500012964010239,
				0.07749997824430466,
				0.0750000923871994
			],
			"min":[
				-0.07500004768371582,
				-0.07750002294778824,
				-0.0750000923871994
			],
			"type":"VEC3"
		},
		{
			"bufferView":5,
			"componentType":5126,
			"count":2916,
			"type":"VEC3"
		},
		{
			"bufferView":6,
			"componentType":5126,
			"count":2916,
			"type":"VEC2"
		},
		{
			"bufferView":7,
			"componentType":5123,
			"count":15360,
			"type":"SCALAR"
		},
		{
			"bufferView":8,
			"componentType":5126,
			"count":1458,
			"max":[
				0.07499998062849045,
				0.04999999329447746,
				0.049999989569187164
			],
			"min":[
				-0.07500001043081284,
				-0.05000000447034836,
				-0.04999999701976776
			],
			"type":"VEC3"
		},
		{
			"bufferView":9,
			"componentType":5126,
			"count":1458,
			"type":"VEC3"
		},
		{
			"bufferView":10,
			"componentType":5126,
			"count":1458,
			"type":"VEC2"
		},
		{
			"bufferView":11,
			"componentType":5123,
			"count":7680,
			"type":"SCALAR"
		},
		{
			"bufferView":12,
			"componentType":5126,
			"count":729,
			"max":[
				0.04999999701976776,
				0.04999999701976776,
				0.04999999329447746
			],
			"min":[
				-0.04999999329447746,
				-0.04999999701976776,
				-0.04999999329447746
			],
			"type":"VEC3"
		},
		{
			"bufferView":13,
			"componentType":5126,
			"count":729,
			"type":"VEC3"
		},
		{
			"bufferView":14,
			"componentType":5126,
			"count":729,
			"type":"VEC2"
		},
		{
			"bufferView":15,
			"componentType":5123,
			"count":3840,
			"type":"SCALAR"
		},
		{
			"bufferView":16,
			"componentType":5126,
			"count":893,
			"max":[
				0.4999999701976776,
				0.4999999701976776,
				0.4999999403953552
			],
			"min":[
				-0.4999999701976776,
				-0.4999999701976776,
				-0.4999999701976776
			],
			"type":"VEC3"
		},
		{
			"bufferView":17,
			"componentType":5126,
			"count":893,
			"type":"VEC3"
		},
		{
			"bufferView":18,
			"componentType":5126,
			"count":893,
			"type":"VEC2"
		},
		{
			"bufferView":19,
			"componentType":5123,
			"count":4272,
			"type":"SCALAR"
		},
		{
			"bufferView":20,
			"componentType":5126,
			"count":585,
			"max":[
				0.3100000023841858,
				0.009999999776482582,
				0.3100000023841858
			],
			"min":[
				-0.3100000023841858,
				-0.009999999776482582,
				-0.3100000023841858
			],
			"type":"VEC3"
		},
		{
			"bufferView":21,
			"componentType":5126,
			"count":585,
			"type":"VEC3"
		},
		{
			"bufferView":22,
			"componentType":5126,
			"count":585,
			"type":"VEC2"
		},
		{
			"bufferView":23,
			"componentType":5123,
			"count":3072,
			"type":"SCALAR"
		},
		{
			"bufferView":24,
			"componentType":5126,
			"count":96,
			"max":[
				0.5,
				0.5,
				0.5
			],
			"min":[
				-0.5,
				-0.5,
				-0.5
			],
			"type":"VEC3"
		},
		{
			"bufferView":25,
			"componentType":5126,
			"count":96,
			"type":"VEC3"
		},
		{
			"bufferView":26,
			"componentType":5126,
			"count":96,
			"type":"VEC2"
		},
		{
			"bufferView":27,
			"componentType":5123,
			"count":132,
			"type":"SCALAR"
		},
		{
			"bufferView":28,
			"componentType":5126,
			"count":729,
			"max":[
				0.04999999701976776,
				0.04999999701976776,
				-0.25000008940696716
			],
			"min":[
				-0.04999999329447746,
				-0.04999999701976776,
				-0.3500000834465027
			],
			"type":"VEC3"
		},
		{
			"bufferView":29,
			"componentType":5126,
			"count":729,
			"type":"VEC3"
		},
		{
			"bufferView":30,
			"componentType":5126,
			"count":729,
			"type":"VEC2"
		},
		{
			"bufferView":31,
			"componentType":5126,
			"count":1458,
			"max":[
				0.05000009387731552,
				0.04999999329447746,
				0.3499999940395355
			],
			"min":[
				-0.05000009387731552,
				-0.05000000447034836,
				-0.34999990463256836
			],
			"type":"VEC3"
		},
		{
			"bufferView":32,
			"componentType":5126,
			"count":1458,
			"type":"VEC3"
		},
		{
			"bufferView":33,
			"componentType":5126,
			"count":1458,
			"type":"VEC2"
		},
		{
			"bufferView":34,
			"componentType":5126,
			"count":2187,
			"max":[
				0.3097490966320038,
				0.04999999329447746,
				0.19992080330848694
			],
			"min":[
				-0.3097490072250366,
				-0.05000000447034836,
				-0.35000020265579224
			],
			"type":"VEC3"
		},
		{
			"bufferView":35,
			"componentType":5126,
			"count":2187,
			"type":"VEC3"
		},
		{
			"bufferView":36,
			"componentType":5126,
			"count":2187,
			"type":"VEC2"
		},
		{
			"bufferView":37,
			"componentType":5126,
			"count":2916,
			"max":[
				0.34999996423721313,
				0.04999999329447746,
				0.34999990463256836
			],
			"min":[
				-0.3500000238418579,
				-0.05000000447034836,
				-0.3500000536441803
			],
			"type":"VEC3"
		},
		{
			"bufferView":38,
			"componentType":5126,
			"count":2916,
			"type":"VEC3"
		},
		{
			"bufferView":39,
			"componentType":5126,
			"count":2916,
			"type":"VEC2"
		}
	],
	"bufferViews":[
		{
			"buffer":0,
			"byteLength":26244,
			"byteOffset":0,
			"target":34962
		},
		{
			"buffer":0,
			"byteLength":26244,
			"byteOffset":26244,
			"target":34962
		},
		{
			"buffer":0,
			"byteLength":17496,
			"byteOffset":52488,
			"target":34962
		},
		{
			"buffer":0,
			"byteLength":23040,
			"byteOffset":69984,
			"target":34963
		},
		{
			"buffer":0,
			"byteLength":34992,
			"byteOffset":93024,
			"target":34962
		},
		{
			"buffer":0,
			"byteLength":34992,
			"byteOffset":128016,
			"target":34962
		},
		{
			"buffer":0,
			"byteLength":23328,
			"byteOffset":163008,
			"target":34962
		},
		{
			"buffer":0,
			"byteLength":30720,
			"byteOffset":186336,
			"target":34963
		},
		{
			"buffer":0,
			"byteLength":17496,
			"byteOffset":217056,
			"target":34962
		},
		{
			"buffer":0,
			"byteLength":17496,
			"byteOffset":234552,
			"target":34962
		},
		{
			"buffer":0,
			"byteLength":11664,
			"byteOffset":252048,
			"target":34962
		},
		{
			"buffer":0,
			"byteLength":15360,
			"byteOffset":263712,
			"target":34963
		},
		{
			"buffer":0,
			"byteLength":8748,
			"byteOffset":279072,
			"target":34962
		},
		{
			"buffer":0,
			"byteLength":8748,
			"byteOffset":287820,
			"target":34962
		},
		{
			"buffer":0,
			"byteLength":5832,
			"byteOffset":296568,
			"target":34962
		},
		{
			"buffer":0,
			"byteLength":7680,
			"byteOffset":302400,
			"target":34963
		},
		{
			"buffer":0,
			"byteLength":10716,
			"byteOffset":310080,
			"target":34962
		},
		{
			"buffer":0,
			"byteLength":10716,
			"byteOffset":320796,
			"target":34962
		},
		{
			"buffer":0,
			"byteLength":7144,
			"byteOffset":331512,
			"target":34962
		},
		{
			"buffer":0,
			"byteLength":8544,
			"byteOffset":338656,
			"target":34963
		},
		{
			"buffer":0,
			"byteLength":7020,
			"byteOffset":347200,
			"target":34962
		},
		{
			"buffer":0,
			"byteLength":7020,
			"byteOffset":354220,
			"target":34962
		},
		{
			"buffer":0,
			"byteLength":4680,
			"byteOffset":361240,
			"target":34962
		},
		{
			"buffer":0,
			"byteLength":6144,
			"byteOffset":365920,
			"target":34963
		},
		{
			"buffer":0,
			"byteLength":1152,
			"byteOffset":372064,
			"target":34962
		},
		{
			"buffer":0,
			"byteLength":1152,
			"byteOffset":373216,
			"target":34962
		},
		{
			"buffer":0,
			"byteLength":768,
			"byteOffset":374368,
			"target":34962
		},
		{
			"buffer":0,
			"byteLength":264,
			"byteOffset":375136,
			"target":34963
		},
		{
			"buffer":0,
			"byteLength":8748,
			"byteOffset":375400,
			"target":34962
		},
		{
			"buffer":0,
			"byteLength":8748,
			"byteOffset":384148,
			"target":34962
		},
		{
			"buffer":0,
			"byteLength":5832,
			"byteOffset":392896,
			"target":34962
		},
		{
			"buffer":0,
			"byteLength":17496,
			"byteOffset":398728,
			"target":34962
		},
		{
			"buffer":0,
			"byteLength":17496,
			"byteOffset":416224,
			"target":34962
		},
		{
			"buffer":0,
			"byteLength":11664,
			"byteOffset":433720,
			"target":34962
		},
		{
			"buffer":0,
			"byteLength":26244,
			"byteOffset":445384,
			"target":34962
		},
		{
			"buffer":0,
			"byteLength":26244,
			"byteOffset":471628,
			"target":34962
		},
		{
			"buffer":0,
			"byteLength":17496,
			"byteOffset":497872,
			"target":34962
		},
		{
			"buffer":0,
			"byteLength":34992,
			"byteOffset":515368,
			"target":34962
		},
		{
			"buffer":0,
			"byteLength":34992,
			"byteOffset":550360,
			"target":34962
		},
		{
			"buffer":0,
			"byteLength":23328,
			"byteOffset":585352,
			"target":34962
		}
	],
	"buffers":[
		{
			"byteLength":608680,
			"uri":"sweeper_objects.bin"
		}
	]
}
